<?xml version="1.0" standalone="no"?>
<!DOCTYPE svg PUBLIC "-//W3C//DTD SVG 20010904//EN"
 "http://www.w3.org/TR/2001/REC-SVG-20010904/DTD/svg10.dtd">
<svg version="1.0" xmlns="http://www.w3.org/2000/svg"
 width="860.000000pt" height="989.000000pt" viewBox="0 0 860.000000 989.000000"
 preserveAspectRatio="xMidYMid meet">
<metadata>
Created by potrace 1.16, written by Peter Selinger 2001-2019
</metadata>
<g transform="translate(0.000000,989.000000) scale(0.100000,-0.100000)"
fill="#000000" stroke="none">
<path d="M2145 8667 c-1703 -984 -2104 -1219 -2122 -1246 l-23 -34 0 -2441 c0
-2407 0 -2441 20 -2473 10 -18 36 -43 57 -56 133 -83 4145 -2393 4175 -2404
21 -7 51 -10 70 -6 51 10 4196 2406 4236 2448 l32 35 0 2455 0 2455 -32 35
c-21 22 -781 466 -2123 1239 -2023 1167 -2091 1206 -2140 1206 -48 0 -128 -45
-2150 -1213z m3055 381 c476 -275 868 -503 872 -506 5 -5 -1686 -990 -1761
-1025 -13 -6 -237 119 -902 502 -486 281 -885 514 -886 518 -1 5 397 238 885
520 762 439 890 510 907 500 11 -5 409 -235 885 -509z m-2089 -1190 c489 -282
889 -515 889 -518 0 -3 -400 -236 -889 -518 l-890 -513 -890 513 c-490 282
-890 515 -890 518 0 4 1768 1028 1778 1029 2 1 404 -230 892 -511z m4151 0
c488 -282 888 -515 888 -518 0 -3 -400 -236 -889 -518 l-890 -513 -890 513
c-489 282 -890 515 -890 518 0 4 1768 1028 1778 1029 3 1 404 -230 893 -511z
m-6029 -1312 l847 -489 0 -1029 c0 -565 -3 -1028 -7 -1027 -5 0 -406 231 -893
512 l-885 512 -3 1033 -2 1032 48 -27 c26 -16 429 -248 895 -517z m2917 -488
l-1 -1033 -837 -483 c-460 -265 -861 -496 -890 -513 l-52 -31 2 1033 3 1033
885 512 c487 282 886 513 888 513 1 1 2 -464 2 -1031z m1233 488 l847 -489 0
-1030 c0 -819 -3 -1028 -12 -1024 -7 3 -409 234 -893 514 l-880 508 -3 1033
-2 1032 48 -27 c26 -16 429 -248 895 -517z m2917 -488 l-1 -1033 -837 -483
c-460 -265 -861 -496 -890 -513 l-52 -31 2 1033 3 1033 885 512 c487 282 886
513 888 513 1 1 2 -464 2 -1031z m-3092 -1808 c480 -276 871 -504 870 -506 -6
-5 -1745 -1007 -1765 -1017 -18 -8 -148 64 -911 504 -509 294 -885 517 -879
521 7 4 408 236 892 516 777 450 882 508 900 498 11 -7 413 -239 893 -516z
m-4022 -73 l889 -514 3 -1032 2 -1033 -32 19 c-18 11 -421 243 -895 517 l-863
498 0 1029 c0 566 2 1029 3 1029 2 0 404 -231 893 -513z m7107 -1548 c-10 -9
-1741 -1009 -1760 -1016 -11 -4 -13 166 -13 1023 l0 1029 888 512 887 513 3
-1027 c1 -565 -1 -1030 -5 -1034z m-4965 311 l822 -475 0 -1028 c0 -819 -3
-1028 -12 -1024 -7 2 -407 232 -888 510 l-875 505 -3 1032 -2 1032 68 -39 c38
-21 438 -252 890 -513z m2902 -477 l0 -1028 -168 -96 c-92 -53 -494 -286 -894
-517 l-728 -420 0 1031 0 1032 888 512 c488 282 890 513 895 513 4 0 7 -462 7
-1027z"/>
</g>
</svg>
